<svg version="1.2" xmlns="http://www.w3.org/2000/svg" viewBox="0 0 32 30" width="32" height="30"><style></style><filter id="f0"><feFlood flood-color="#342ead" flood-opacity="1" /><feBlend mode="normal" in2="SourceGraphic"/><feComposite in2="SourceAlpha" operator="in" /></filter><g filter="url(#f0)"><path  d="m29.6 24.4v-13.9c0-0.4-0.3-0.8-0.8-0.8h-4.5v-3.2c0-0.4-0.3-0.7-0.8-0.7h-3.4v-1.1c0-2.1-1.9-3.9-4.2-3.9-2.3 0-4.1 1.8-4.1 3.9v1.1h-3.5c-0.4 0-0.8 0.3-0.8 0.7v3.2h-4.5c-0.4 0-0.8 0.4-0.8 0.8v13.9c-1.2 0-2.2 1-2.2 2.1v0.4c0 1.2 1 2.2 2.3 2.2h27.3c1.3 0 2.3-1 2.3-2.2v-0.4c0-1.1-1-2.1-2.3-2.1zm-21.3-2.8h15.2c0.5 0 0.8-0.3 0.8-0.7v-7.1h1.2v10.5h-19.2v-10.5h1.2v7.1c0 0.4 0.4 0.7 0.8 0.7zm19.7-10.4v13.1h-0.9v-11.3c0-0.4-0.3-0.7-0.8-0.7h-2v-1.1zm-14.6-6.5c0-1.3 1.1-2.4 2.5-2.4 1.4 0 2.6 1.1 2.6 2.4v1.1h-5.1zm-4.3 2.5h2.7v1.3c0 0.4 0.3 0.8 0.8 0.8 0.4 0 0.8-0.4 0.8-0.8v-1.3h5.1v1.3c0 0.4 0.4 0.8 0.8 0.8 0.4 0 0.8-0.4 0.8-0.8v-1.3h2.6v12.9h-13.6zm-5.3 3.9h3.7v1.1h-2c-0.4 0-0.8 0.3-0.8 0.7v11.2h-0.9c0 0 0-13 0-13zm26.5 15.7c0 0.4-0.3 0.6-0.7 0.6h-27.3c-0.4 0-0.7-0.2-0.7-0.6v-0.4c0-0.3 0.3-0.6 0.7-0.6h27.3c0.4 0 0.7 0.3 0.7 0.6z"/><path fill-rule="evenodd" d="m18.3 15.3l-5.2-1.9 2.1 4.8 0.5-1.5 2.1 2 1-1-2.1-1.9z"/></g></svg>