<svg version="1.2" xmlns="http://www.w3.org/2000/svg" viewBox="0 0 32 30" width="32" height="30">
	<style>
		.s0 { fill: #000000 } 
	</style>
	<filter id="f0">
		<feFlood flood-color="#342ead" flood-opacity="1" />
		<feBlend mode="normal" in2="SourceGraphic"/>
		<feComposite in2="SourceAlpha" operator="in" />
	</filter>
	<g filter="url(#f0)">
		<path class="s0" d="m28.57 0h-25.14c-1.94 0-3.43 1.63-3.43 3.75v22.5c0 2.13 1.49 3.75 3.43 3.75h25.14c1.94 0 3.43-1.63 3.43-3.75v-22.5c0-2.13-1.49-3.75-3.43-3.75zm-17.03 4.5c0.12-0.13 0.12-0.25 0.23-0.38 0.46-0.49 1.14-0.49 1.6 0.01 0.12 0.12 0.23 0.24 0.23 0.37 0.11 0.13 0.11 0.38 0.11 0.5 0 0.13 0 0.38-0.11 0.5-0.11 0.13-0.11 0.25-0.23 0.38-0.23 0.24-0.46 0.37-0.8 0.37-0.11 0-0.34 0-0.46-0.12-0.11-0.13-0.22-0.13-0.34-0.25-0.11-0.13-0.23-0.25-0.23-0.38-0.11-0.12-0.11-0.38-0.11-0.5 0-0.12 0-0.38 0.11-0.5zm-3.43 0c0.12-0.12 0.12-0.25 0.23-0.38 0.12-0.12 0.23-0.24 0.35-0.24 0.45-0.26 0.91-0.13 1.25 0.24 0.12 0.13 0.23 0.26 0.23 0.38 0.12 0.13 0.12 0.38 0.12 0.5 0 0.38-0.12 0.63-0.35 0.87-0.23 0.26-0.45 0.38-0.8 0.38-0.34 0-0.57-0.12-0.8-0.38-0.23-0.24-0.34-0.49-0.34-0.87 0-0.12 0-0.38 0.11-0.5zm-3.2-0.38l0.12-0.12c0.11 0 0.11-0.12 0.23-0.12 0.11-0.13 0.11-0.13 0.23-0.13 0.11 0 0.34 0 0.45 0 0.12 0 0.12 0 0.23 0.13 0.12 0 0.12 0.12 0.23 0.12l0.11 0.12c0.12 0.13 0.23 0.25 0.23 0.38 0.12 0.13 0.12 0.38 0.12 0.5 0 0.13 0 0.38-0.12 0.5 0 0.13-0.11 0.25-0.23 0.37-0.22 0.26-0.45 0.38-0.8 0.38-0.34 0-0.57-0.12-0.8-0.38-0.22-0.24-0.34-0.49-0.34-0.87 0-0.38 0.12-0.63 0.34-0.88zm12.23 19.63c0 0.75-0.45 1.25-1.14 1.25h-11.43c-0.68 0-1.14-0.5-1.14-1.25v-1l7.88-3.88 5.83 4.25zm0-3.62l-5.03-3.75c-0.34-0.25-0.68-0.25-1.14-0.13l-7.54 3.75v-8.75c0-0.75 0.46-1.25 1.14-1.25h11.43c0.69 0 1.14 0.5 1.14 1.25zm11.43 3.63c0 0.75-0.46 1.25-1.14 1.25h-6.86c-0.68 0-1.14-0.5-1.14-1.25v-3.75c0-0.75 0.46-1.25 1.14-1.25h6.86c0.68 0 1.14 0.5 1.14 1.25zm-1.14-6.25h-3.43c-0.69 0-1.14-0.5-1.14-1.25 0-0.75 0.45-1.25 1.14-1.25h3.43c0.68 0 1.14 0.5 1.14 1.25 0 0.75-0.46 1.25-1.14 1.25zm0-3.75h-6.86c-0.68 0-1.14-0.5-1.14-1.25 0-0.75 0.46-1.25 1.14-1.25h6.86c0.68 0 1.14 0.5 1.14 1.25 0 0.75-0.46 1.25-1.14 1.25z"/>
		<path class="s0" d="m8.8 14.13c-0.46-0.51-1.14-0.51-1.6-0.01-0.11 0.13-0.23 0.25-0.23 0.38-0.11 0.12-0.11 0.37-0.11 0.5 0 0.37 0.11 0.62 0.34 0.87 0.11 0.13 0.23 0.25 0.34 0.25 0.12 0 0.35 0.13 0.46 0.13 0.34 0 0.57-0.13 0.8-0.38 0.23-0.25 0.34-0.5 0.34-0.87 0-0.13 0-0.38-0.11-0.5-0.12-0.13-0.12-0.25-0.23-0.38z"/>
	</g>
</svg>