<svg version="1.2" xmlns="http://www.w3.org/2000/svg" viewBox="0 0 32 30" width="32" height="30"><style></style><filter id="f0"><feFlood flood-color="#342ead" flood-opacity="1" /><feBlend mode="normal" in2="SourceGraphic"/><feComposite in2="SourceAlpha" operator="in" /></filter><g filter="url(#f0)"><path  d="m28.9 7.7c-2.4-4.3-8.2-8.3-15.6-7.3-11.9 1.5-18.2 15.6-8.7 24.3 11.5 10.5 32.6-1.7 24.3-17zm-16.8 20.1c-6.1-1-11.3-6.9-11.4-13-0.2-7.7 5.5-12.7 12.3-13.6 9.5-1.3 18 5.2 16.7 15.1-1.1 8.2-9.2 12.9-17.6 11.5zm-2.8-19.6c-0.3 0.5-1.5 0.1-1.9 0.5 1.5 4.4 2.9 8.9 4.7 12.9 1.8-4.4 3.8-8.6 0.9-12.9-0.5-0.4-2.1 0.2-2-0.7 1.3-0.5 6.9-0.5 8.1 0 0 0.8-1.6 0.2-1.9 0.7 1.5 4.3 2.7 8.8 4.7 12.6 0.5-3.2 2.3-4.3 2.2-7.6-0.1-3.7-5.1-7-0.3-8.6-4.6-4.7-17.2-3.3-19.2 2.6 1.9 0.4 4.4-0.8 4.7 0.5zm12.6 16.5c5.1-1.8 8.6-10.4 4.7-15.7 0.1 5.8-3.2 10.6-4.7 15.7zm-12.6 0.5c-1.8-5.4-3.7-10.7-6.1-15.7-2.7 6.6 0.8 13.6 6.1 15.7zm2.3 0.8c1.8 0.9 5.9 0.6 7.8 0-1.2-3.6-2.2-7.4-4.2-10.2-1 3.6-2.3 6.9-3.6 10.2z"/></g></svg>